    <svg width="100%" height="100%" viewBox="0 0 384 194" version="1.1" xmlns="http://www.w3.org/2000/svg" xmlns:xlink="http://www.w3.org/1999/xlink">
      <g id="answer" stroke="none" stroke-width="1" fill="none" fill-rule="evenodd">
          <g id="Text-Copy" transform="translate(39.000000, 35.000000)" fill="#000000">
              <path d="M51.2109375,95 L44.4609375,95 L60.5625,21.875 C61.2187533,18.9687355 61.546875,16.812507 61.546875,15.40625 C61.546875,13.812492 61.1601601,12.5468797 60.3867188,11.609375 C59.6132774,10.6718703 58.5468818,10.203125 57.1875,10.203125 C53.0156041,10.203125 48.0703411,14.8437036 42.3515625,24.125 C40.1015512,27.734393 37.6992315,32.0468499 35.1445312,37.0625 C32.589831,42.0781501 30.3046976,46.8241964 28.2890625,51.3007812 C26.2734274,55.7773661 24.2343853,60.7109105 22.171875,66.1015625 C20.1093647,71.4922145 18.281258,76.7187247 16.6875,81.78125 L12.9609375,93.6640625 L12.5390625,95 L6.5625,95 L6.984375,93.59375 C10.0781405,82.9061966 13.570293,68.0235329 17.4609375,48.9453125 C18.960945,41.7734016 20.2734319,35.0234691 21.3984375,28.6953125 C22.9453202,20.2108951 23.71875,14.3047041 23.71875,10.9765625 C23.71875,9.24217883 23.5312519,7.68360066 23.15625,6.30078125 C22.7812481,4.91796184 22.2539096,3.87500352 21.5742188,3.171875 C20.8945279,2.46874648 20.0859422,2.1171875 19.1484375,2.1171875 C15.3515435,2.1171875 12.1640754,6.80464062 9.5859375,16.1796875 C7.57030242,23.3515984 6.23437828,29.8437209 5.578125,35.65625 L0.09375,31.859375 C1.03125469,25.9999707 2.48436516,20.597681 4.453125,15.6523438 C6.42188484,10.7070065 8.64842508,6.86329496 11.1328125,4.12109375 C13.6171999,1.37889254 16.1249873,0.0078125 18.65625,0.0078125 C21.656265,0.0078125 24.0117102,1.62498383 25.7226562,4.859375 C27.4336023,8.09376617 28.2890625,12.5702839 28.2890625,18.2890625 C28.2890625,22.9765859 27.8437545,28.1327844 26.953125,33.7578125 C26.343747,37.6015817 25.6875035,41.421856 24.984375,45.21875 L21.3984375,62.515625 L22.03125,60.96875 C26.1093954,51.0312003 30.0117001,42.4297238 33.7382812,35.1640625 C37.4648624,27.8984012 40.9452963,22.0156475 44.1796875,17.515625 C49.9922166,9.59371039 55.3827877,5.6328125 60.3515625,5.6328125 C62.648449,5.6328125 64.5351489,6.44139816 66.0117188,8.05859375 C67.4882886,9.67578934 68.2265625,11.7734246 68.2265625,14.3515625 C68.2265625,16.5546985 67.828129,19.4609195 67.03125,23.0703125 L51.2109375,95 Z M68.2265625,81.5 C68.2265625,77.2812289 69.3632699,73.0742397 71.6367188,68.8789062 C73.9101676,64.6835728 76.8515445,61.2734506 80.4609375,58.6484375 C84.0703305,56.0234244 87.7499813,54.7109375 91.5,54.7109375 C95.4375197,54.7109375 98.6132692,56.0117057 101.027344,58.6132812 C103.441418,61.2148568 104.648438,64.5781044 104.648438,68.703125 C104.648438,73.2031475 103.535167,77.5624789 101.308594,81.78125 C99.0820201,86.0000211 96.1523619,89.4570178 92.5195312,92.1523438 C88.8867006,94.8476697 85.2187685,96.1953125 81.515625,96.1953125 C77.5312301,96.1953125 74.3203247,94.8476697 71.8828125,92.1523438 C69.4453003,89.4570178 68.2265625,85.906272 68.2265625,81.5 L68.2265625,81.5 Z M98.3203125,66.03125 C98.3203125,63.2187359 97.6289132,60.8984466 96.2460938,59.0703125 C94.8632743,57.2421784 93.0937608,56.328125 90.9375,56.328125 C88.9687402,56.328125 87.0820403,56.9609312 85.2773438,58.2265625 C83.4726472,59.4921938 81.82032,61.3437378 80.3203125,63.78125 C78.6328041,66.5937641 77.2382868,69.8749812 76.1367188,73.625 C75.0351507,77.3750187 74.484375,80.7031105 74.484375,83.609375 C74.484375,87.0781423 75.1640557,89.7499906 76.5234375,91.625 C77.8828193,93.5000094 79.8281123,94.4375 82.359375,94.4375 C86.4375204,94.4375 90.023422,91.6015909 93.1171875,85.9296875 C94.7109455,83.023423 95.9765578,79.765643 96.9140625,76.15625 C97.8515672,72.546857 98.3203125,69.1718907 98.3203125,66.03125 L98.3203125,66.03125 Z M123.84375,57.453125 L118.5,80.8671875 C117.937497,83.4453254 117.65625,85.2734321 117.65625,86.3515625 C117.65625,88.0390709 118.054684,89.3984323 118.851562,90.4296875 C119.648441,91.4609427 120.703118,91.9765625 122.015625,91.9765625 C123.281256,91.9765625 124.441401,91.6132849 125.496094,90.8867188 C126.550787,90.1601526 128.156239,88.648449 130.3125,86.3515625 L131.15625,85.5078125 L132.210938,86.5625 C129.445299,89.9375169 127.136728,92.3163993 125.285156,93.6992188 C123.433584,95.0820382 121.617196,95.7734375 119.835938,95.7734375 C117.585926,95.7734375 115.792975,95.0351636 114.457031,93.5585938 C113.121087,92.0820239 112.453125,90.1484495 112.453125,87.7578125 C112.453125,85.9765536 112.804684,83.3984544 113.507812,80.0234375 L118.078125,57.453125 L111.328125,57.453125 L111.820312,55.0625 L118.570312,55.0625 L122.507812,36.078125 L129.257812,33.40625 L124.335938,55.0625 L135.726562,55.0625 L135.234375,57.453125 L123.84375,57.453125 Z M154.921875,119.960938 L158.367188,115.320312 C161.085951,118.226577 164.156233,119.679688 167.578125,119.679688 C171.187518,119.679688 174.093739,118.250014 176.296875,115.390625 C178.500011,112.531236 180.30468,107.843783 181.710938,101.328125 L184.945312,86.7734375 C179.789037,92.8203427 175.125021,95.84375 170.953125,95.84375 C168.515613,95.84375 166.605476,95.0937575 165.222656,93.59375 C163.839837,92.0937425 163.148438,90.0781377 163.148438,87.546875 C163.148438,85.8593666 163.359373,84.0078226 163.78125,81.9921875 L168.5625,56.75 L175.382812,53.8671875 L168.5625,82.203125 C167.999997,84.5000115 167.71875,86.2109319 167.71875,87.3359375 C167.71875,88.9296955 168.199214,90.2304637 169.160156,91.2382812 C170.121099,92.2460988 171.39843,92.75 172.992188,92.75 C174.726571,92.75 176.636708,91.9882889 178.722656,90.4648438 C180.808604,88.9413986 183.140612,86.6562652 185.71875,83.609375 L191.765625,56.75 L198.375,53.8671875 L188.109375,95.2109375 C186.890619,100.179712 185.730474,104.070298 184.628906,106.882812 C183.527338,109.695327 182.250007,112.039053 180.796875,113.914062 C176.203102,119.820342 170.601596,122.773438 163.992188,122.773438 C160.148418,122.773438 157.125011,121.835947 154.921875,119.960938 L154.921875,119.960938 Z M231.984375,84.1015625 L233.25,85.15625 C230.343735,89.0000192 227.507826,91.7773352 224.742188,93.4882812 C221.976549,95.1992273 219.000016,96.0546875 215.8125,96.0546875 C212.015606,96.0546875 208.968761,94.7890752 206.671875,92.2578125 C204.374989,89.7265498 203.226563,86.3750209 203.226563,82.203125 C203.226563,77.9843539 204.339833,73.7070529 206.566406,69.3710938 C208.79298,65.0351346 211.582014,61.4492329 214.933594,58.6132812 C218.285173,55.7773296 221.601546,54.359375 224.882813,54.359375 C226.804697,54.359375 228.386713,54.9218694 229.628906,56.046875 C230.8711,57.1718806 231.492188,58.6249911 231.492188,60.40625 C231.492188,64.015643 229.523457,67.624982 225.585938,71.234375 C221.648418,74.843768 216.281284,77.9140498 209.484375,80.4453125 C209.4375,80.8203144 209.414063,81.2421852 209.414063,81.7109375 C209.414063,84.9453287 210.304679,87.5820211 212.085938,89.6210938 C213.867196,91.6601664 216.164048,92.6796875 218.976563,92.6796875 C221.179699,92.6796875 223.31249,91.9882882 225.375,90.6054688 C227.43751,89.2226493 229.640613,87.0547023 231.984375,84.1015625 L231.984375,84.1015625 Z M209.484375,78.7578125 C214.5469,76.5078012 218.437486,74.0000138 221.15625,71.234375 C222.984384,69.3593656 224.460932,67.3437608 225.585937,65.1875 C226.710943,63.0312392 227.273437,61.0859462 227.273437,59.3515625 C227.273437,57.1484265 226.265635,56.046875 224.25,56.046875 C221.20311,56.046875 218.121109,58.4491947 215.003906,63.2539062 C211.886703,68.0586178 210.046878,73.2265348 209.484375,78.7578125 L209.484375,78.7578125 Z M251.53125,57.453125 L246.1875,80.8671875 C245.624997,83.4453254 245.34375,85.2734321 245.34375,86.3515625 C245.34375,88.0390709 245.742184,89.3984323 246.539063,90.4296875 C247.335941,91.4609427 248.390618,91.9765625 249.703125,91.9765625 C250.968756,91.9765625 252.128901,91.6132849 253.183594,90.8867188 C254.238287,90.1601526 255.843739,88.648449 258,86.3515625 L258.84375,85.5078125 L259.898438,86.5625 C257.132799,89.9375169 254.824228,92.3163993 252.972656,93.6992188 C251.121084,95.0820382 249.304696,95.7734375 247.523438,95.7734375 C245.273426,95.7734375 243.480475,95.0351636 242.144531,93.5585938 C240.808587,92.0820239 240.140625,90.1484495 240.140625,87.7578125 C240.140625,85.9765536 240.492184,83.3984544 241.195313,80.0234375 L245.765625,57.453125 L239.015625,57.453125 L239.507813,55.0625 L246.257813,55.0625 L250.195313,36.078125 L256.945312,33.40625 L252.023438,55.0625 L263.414062,55.0625 L262.921875,57.453125 L251.53125,57.453125 Z M296.53125,5.984375 L278.742188,77.703125 L276.773438,78.6171875 L287.179688,10.203125 L296.53125,5.984375 Z M275.859375,84.3828125 C277.500008,84.3828125 278.85937,84.9218696 279.9375,86 C281.01563,87.0781304 281.554688,88.4374918 281.554688,90.078125 C281.554688,91.7187582 281.01563,93.0781196 279.9375,94.15625 C278.85937,95.2343804 277.500008,95.7734375 275.859375,95.7734375 C274.265617,95.7734375 272.906256,95.2343804 271.78125,94.15625 C270.656244,93.0781196 270.09375,91.7187582 270.09375,90.078125 C270.09375,88.4374918 270.656244,87.0781304 271.78125,86 C272.906256,84.9218696 274.265617,84.3828125 275.859375,84.3828125 L275.859375,84.3828125 Z" id="Not-yet!"></path>
          </g>
      </g>
  </svg>